<?xml version="1.0" encoding="UTF-8" standalone="no"?>
<!-- Created with Inkscape (http://www.inkscape.org/) -->

<svg
   version="1.1"
   id="svg2"
   width="800"
   height="800"
   viewBox="0 0 800 800"
   sodipodi:docname="airplane-window-pdv.svg"
   inkscape:version="1.2 (dc2aedaf03, 2022-05-15)"
   xmlns:inkscape="http://www.inkscape.org/namespaces/inkscape"
   xmlns:sodipodi="http://sodipodi.sourceforge.net/DTD/sodipodi-0.dtd"
   xmlns="http://www.w3.org/2000/svg"
   xmlns:svg="http://www.w3.org/2000/svg">
  <defs
     id="defs6">
    <clipPath
       clipPathUnits="userSpaceOnUse"
       id="clipPath18">
      <path
         d="M 0,600 H 600 V 0 H 0 Z"
         id="path16" />
    </clipPath>
  </defs>
  <sodipodi:namedview
     id="namedview4"
     pagecolor="#ffffff"
     bordercolor="#000000"
     borderopacity="0.25"
     inkscape:showpageshadow="2"
     inkscape:pageopacity="0.0"
     inkscape:pagecheckerboard="0"
     inkscape:deskcolor="#d1d1d1"
     showgrid="false"
     inkscape:zoom="1.04625"
     inkscape:cx="400"
     inkscape:cy="400.4779"
     inkscape:window-width="1920"
     inkscape:window-height="1017"
     inkscape:window-x="-8"
     inkscape:window-y="-8"
     inkscape:window-maximized="1"
     inkscape:current-layer="g10">
    <inkscape:page
       x="0"
       y="0"
       id="page8"
       width="800"
       height="800" />
  </sodipodi:namedview>
  <g
     id="g10"
     inkscape:groupmode="layer"
     inkscape:label="Page 1"
     transform="matrix(1.3333333,0,0,-1.3333333,0,800)">
    <g
       id="g12">
      <g
         id="g14"
         clip-path="url(#clipPath18)">
        <g
           id="g20"
           transform="translate(203.7383,550.5479)">
          <path
             d="m 0,0 c 66.855,5.61 136.815,5.611 203.67,0 33.904,-2.845 60.203,-25.716 63.923,-55.591 14.259,-114.487 14.259,-216.162 0,-330.648 -3.72,-29.875 -30.019,-52.747 -63.923,-55.59 -66.855,-5.611 -136.815,-5.613 -203.672,0 -33.903,2.843 -60.2,25.715 -63.92,55.59 -14.262,114.486 -14.262,216.161 0,330.648 C -60.202,-25.716 -33.905,-2.845 0,0"
             style="fill:#cad8e6;fill-opacity:1;fill-rule:evenodd;stroke:none"
             id="path22" />
        </g>
        <g
           id="g24"
           transform="translate(199.6152,512.2939)">
          <path
             d="m 0,0 c 70.3,5.44 141.615,5.44 211.915,0 14.487,-1.121 25.263,-9.765 26.855,-21.536 14.584,-107.994 14.584,-214.257 0,-322.251 -1.592,-11.771 -12.368,-20.414 -26.853,-21.537 -70.302,-5.44 -141.617,-5.44 -211.917,0 -14.487,1.123 -25.263,9.766 -26.852,21.537 -14.584,107.994 -14.584,214.257 0,322.251 C -25.263,-9.765 -14.487,-1.121 0,0"
             style="fill:#bfcddb;fill-opacity:1;fill-rule:evenodd;stroke:none"
             id="path26" />
        </g>
        <g
           id="g28"
           transform="translate(200.8105,502.0566)">
          <path
             d="m 0,0 c -8.521,-0.659 -14.552,-5.496 -15.489,-12.422 -14.641,-108.421 -14.641,-211.585 0,-320.003 0.937,-6.927 6.968,-11.764 15.489,-12.423 69.294,-5.364 140.232,-5.364 209.524,0 8.524,0.659 14.554,5.496 15.489,12.421 14.643,108.42 14.643,211.583 0,320.005 C 224.078,-5.496 218.048,-0.659 209.524,0 140.232,5.364 69.294,5.364 0,0"
             style="fill:#ebf3fa;fill-opacity:1;fill-rule:evenodd;stroke:none"
             id="path30" />
        </g>
        <g
           id="g32"
           transform="translate(203.8926,486.9038)">
          <path
             d="m 0,0 c -14.145,-105.419 -14.145,-209.124 0,-314.542 67.468,-5.157 135.894,-5.155 203.36,0 14.147,105.418 14.145,209.123 0,314.542 C 135.894,5.155 67.468,5.155 0,0"
             style="fill:#95c2f0;fill-opacity:1;fill-rule:evenodd;stroke:none"
             id="path34" />
        </g>
        <g
           id="g36"
           transform="translate(249.0781,169.6846)">
          <path
             d="m 0,0 127.213,319.22 c 10.34,-0.547 20.661,-1.213 30.962,-2.001 0.497,-3.699 0.973,-7.397 1.435,-11.093 L 37.194,-1.05 C 24.787,-0.872 12.386,-0.521 0,0 m -54.597,107.287 c 1.577,-34.766 4.714,-69.593 9.411,-104.609 8.9,-0.683 17.815,-1.271 26.741,-1.772 l 127.191,319.162 c -26.045,1.015 -52.162,1.27 -78.24,0.766 z"
             style="fill:#aad2fa;fill-opacity:1;fill-rule:evenodd;stroke:none"
             id="path38" />
        </g>
        <g
           id="g40"
           transform="translate(193.3105,322.1826)">
          <path
             d="m 0,0 c 0.319,-49.799 3.845,-99.616 10.582,-149.82 67.468,-5.157 135.894,-5.156 203.36,0 8.805,65.616 12.127,130.569 9.97,195.685 L 192.502,64.52 152.865,11.479 117.419,38.154 89.977,16.751 58.725,38.772 31.285,18.61 19.088,27.607 Z"
             style="fill:#75a6d6;fill-opacity:1;fill-rule:evenodd;stroke:none"
             id="path42" />
        </g>
        <g
           id="g44"
           transform="translate(249.0781,169.6846)">
          <path
             d="M 0,0 72.671,182.357 97.098,163.977 109.66,180.788 37.194,-1.05 C 24.787,-0.872 12.386,-0.521 0,0 m -54.597,107.289 c 1.577,-34.766 4.714,-69.595 9.411,-104.611 8.9,-0.683 17.815,-1.271 26.741,-1.772 L 55.15,185.582 34.209,169.249 2.957,191.27 -24.482,171.108 -28.1,173.776 Z"
             style="fill:#8ebbe8;fill-opacity:1;fill-rule:evenodd;stroke:none"
             id="path46" />
        </g>
        <g
           id="g48"
           transform="translate(413.2305,225.9014)">
          <path
             d="m 0,0 c 2.421,27.193 3.893,54.31 4.414,81.41 l -23.338,13.784 -20.2,-31.947 -33.54,9.615 -28.583,-38.153 z"
             style="fill:#6190bf;fill-opacity:1;fill-rule:evenodd;stroke:none"
             id="path50" />
        </g>
        <g
           id="g52"
           transform="translate(193.7471,297.0088)">
          <path
             d="m 0,0 c 1.165,-41.423 4.545,-82.901 10.145,-124.646 67.468,-5.158 135.894,-5.156 203.361,0 3.302,24.6 5.83,49.108 7.591,73.565 l -8.516,12.005 -15.281,-12.438 -45.828,37.297 -8.906,-12.554 -39.617,18.612 -6.724,-9.479 L 54.635,40.989 43.171,29.941 35.458,33.566 13.122,-2.74 Z"
             style="fill:#527da8;fill-opacity:1;fill-rule:evenodd;stroke:none"
             id="path54" />
        </g>
        <g
           id="g56"
           transform="translate(249.0781,169.6846)">
          <path
             d="m 0,0 47.323,118.749 0.295,0.416 L 79.191,104.331 37.194,-1.05 C 24.787,-0.872 12.386,-0.521 0,0 m -54.597,107.291 c 1.579,-34.766 4.714,-69.597 9.411,-104.613 8.9,-0.683 17.815,-1.271 26.741,-1.772 l 49.102,123.213 -31.353,44.194 -11.464,-11.047 -7.713,3.625 -22.336,-36.307 -5.073,1.059 z"
             style="fill:#5e8ab5;fill-opacity:1;fill-rule:evenodd;stroke:none"
             id="path58" />
        </g>
        <g
           id="g60"
           transform="translate(195.9434,251.0684)">
          <path
             d="m 0,0 c 1.77,-26.165 4.419,-52.381 7.949,-78.706 67.468,-5.157 135.894,-5.155 203.361,0 1.355,10.105 2.581,20.196 3.677,30.275 L 191.58,-29.382 173.993,-54.172 132.515,4.3 106.314,-32.631 69.044,19.908 34.819,-28.338 Z"
             style="fill:#3e6082;fill-opacity:1;fill-rule:evenodd;stroke:none"
             id="path62" />
        </g>
        <g
           id="g64"
           transform="translate(249.0781,169.6846)">
          <path
             d="M 0,0 31.568,79.216 53.18,48.753 61.996,61.182 37.194,-1.05 C 24.787,-0.872 12.386,-0.521 0,0 m -53.135,81.384 c 1.77,-26.165 4.419,-52.381 7.949,-78.706 8.9,-0.683 17.815,-1.271 26.741,-1.772 l 37.973,95.284 -3.619,5.102 -34.224,-48.246 z"
             style="fill:#4d6f91;fill-opacity:1;fill-rule:evenodd;stroke:none"
             id="path66" />
        </g>
        <g
           id="g68"
           transform="translate(297.9883,379.2568)">
          <path
             d="M 0,0 C 24.942,0 45.286,20.344 45.286,45.287 45.286,70.23 24.942,90.574 0,90.574 -24.943,90.574 -45.287,70.23 -45.287,45.287 -45.287,20.344 -24.943,0 0,0"
             style="fill:#fff07f;fill-opacity:1;fill-rule:evenodd;stroke:none"
             id="path70" />
        </g>
        <g
           id="g72"
           transform="translate(297.9863,469.8301)">
          <path
             d="M 0,0 C 18.363,0 34.175,-10.931 41.283,-26.64 L 17.144,-87.213 c -5.29,-2.165 -11.076,-3.36 -17.144,-3.36 -24.533,0 -44.51,19.512 -45.261,43.866 l 13.383,33.583 C -23.693,-5.013 -12.434,0 0,0"
             style="fill:#fff7ba;fill-opacity:1;fill-rule:evenodd;stroke:none"
             id="path74" />
        </g>
        <g
           id="g76"
           transform="translate(224.5957,340.793)">
          <path
             d="m 0,0 -13.987,6.406 1.79,2.591 z M 16.478,12.108 27.439,20.162 51.231,3.399 27.926,17.913 Z M 67.942,5.353 86.331,16.749 109.001,2.333 86.134,19.544 Z m 53.638,-12.485 41.548,46.527 13.794,-2.814 -15.705,9.328 z"
             style="fill:#b8d4f0;fill-opacity:1;fill-rule:evenodd;stroke:none"
             id="path78" />
        </g>
        <g
           id="g80"
           transform="translate(222.792,374.1641)">
          <path
             d="M 0,0 C 0.876,0 1.714,-0.164 2.485,-0.462 2.447,0.023 2.427,0.515 2.427,1.011 c 0,10.39 8.424,18.813 18.815,18.813 4.03,0 7.765,-1.267 10.828,-3.427 2.159,6.009 7.909,10.306 14.661,10.306 8.573,0 15.528,-6.928 15.574,-15.491 6.066,-1.68 10.521,-7.239 10.521,-13.843 0,-0.27 -0.009,-0.542 -0.022,-0.808 H -5.957 C -4.768,-1.383 -2.547,0 0,0"
             style="fill:#ffffff;fill-opacity:1;fill-rule:evenodd;stroke:none"
             id="path82" />
        </g>
        <g
           id="g84"
           transform="translate(379.6543,449.1563)">
          <path
             d="m 0,0 c -0.311,5.589 -4.942,10.025 -10.608,10.025 -2.527,0 -4.845,-0.88 -6.668,-2.352 -1.388,2.306 -3.914,3.848 -6.8,3.848 -2.614,0 -4.932,-1.263 -6.377,-3.214 -2.203,1.464 -4.847,2.317 -7.691,2.317 -4.605,0 -8.689,-2.238 -11.223,-5.687 -0.857,1.603 -2.544,2.694 -4.489,2.694 -2.809,0 -5.087,-2.277 -5.087,-5.088 0,-0.927 0.246,-1.795 0.68,-2.543 z"
             style="fill:#e5f1fc;fill-opacity:1;fill-rule:evenodd;stroke:none"
             id="path86" />
        </g>
        <g
           id="g88"
           transform="translate(289.9717,279.3711)">
          <path
             d="M 0,0 6.775,7.137 42.147,-7.163 6.725,9.478 Z m 48.668,-5.853 5.558,3.995 29.099,-17.573 -28.078,22.852 z m 52.407,-28.023 17.076,9.903 -1.795,2.534 z M -53.054,47.579 -41.816,54.459 -0.981,1.385 -41.59,58.627 Z"
             style="fill:#aac8e6;fill-opacity:1;fill-rule:evenodd;stroke:none"
             id="path90" />
        </g>
        <g
           id="g92"
           transform="translate(365.6152,202.9883)">
          <path
             d="M 0,0 -37.612,47.229 -52.348,30.97 -37.157,52.38 Z m -119.731,41.059 19.103,26.929 25.947,-36.578 -25.817,30.397 z M 43.318,1.272 23.75,14.659 4.321,-6.092 21.908,18.698 Z"
             style="fill:#7aa3cc;fill-opacity:1;fill-rule:evenodd;stroke:none"
             id="path94" />
        </g>
        <g
           id="g96"
           transform="translate(280,247.2744)">
          <path
             d="m 0,0 0.646,1.626 10.289,-14.502 z m -11.394,18.601 -1.407,-3.53 -2.082,2.449 -19.233,-20.748 19.103,26.93 z"
             style="fill:#95b9de;fill-opacity:1;fill-rule:evenodd;stroke:none"
             id="path98" />
        </g>
      </g>
    </g>
  </g>
</svg>
